HIERARCHY
ROOT Hips
{
	OFFSET 0.000000 0.000000 0.000000
	CHANNELS 6 Xposition Yposition Zposition Xrotation Yrotation Zrotation
	JOINT LeftUpLeg_virtual
	{
		OFFSET 0.000000 0.000000 0.000000
		CHANNELS 3 Xrotation Yrotation Zrotation
		JOINT LeftUpLeg
		{
			OFFSET 10.205400 -3.823500 0.155100
			CHANNELS 3 Xrotation Yrotation Zrotation
			JOINT LeftLeg
			{
				OFFSET 0.708757 -12.982077 0.567790
				CHANNELS 3 Xrotation Yrotation Zrotation
				JOINT LeftFoot
				{
					OFFSET -0.708756 -10.717838 -2.184338
					CHANNELS 3 Xrotation Yrotation Zrotation
					JOINT LeftToeBase
					{
						OFFSET 0.108149 -7.191104 7.560241
						CHANNELS 3 Xrotation Yrotation Zrotation
						JOINT LeftToe_End
						{
							OFFSET 0.070230 0.081724 4.490308
							CHANNELS 3 Xrotation Yrotation Zrotation
							End Site
							{
								OFFSET 0 0 0
							}
						}
					}
				}
			}
		}
	}
	JOINT RightUpLeg_virtual
	{
		OFFSET 0.000000 0.000000 0.000000
		CHANNELS 3 Xrotation Yrotation Zrotation
		JOINT RightUpLeg
		{
			OFFSET -10.205400 -3.823500 0.005500
			CHANNELS 3 Xrotation Yrotation Zrotation
			JOINT RightLeg
			{
				OFFSET -0.708756 -12.982134 0.610632
				CHANNELS 3 Xrotation Yrotation Zrotation
				JOINT RightFoot
				{
					OFFSET 0.708754 -10.717769 -1.945823
					CHANNELS 3 Xrotation Yrotation Zrotation
					JOINT RightToeBase
					{
						OFFSET -0.108140 -7.191069 7.372968
						CHANNELS 3 Xrotation Yrotation Zrotation
						JOINT RightToe_End
						{
							OFFSET -0.070227 0.081735 4.479403
							CHANNELS 3 Xrotation Yrotation Zrotation
							End Site
							{
								OFFSET 0 0 0
							}
						}
					}
				}
			}
		}
	}
	JOINT Spine_virtual
	{
		OFFSET 0.000000 0.000000 0.000000
		CHANNELS 3 Xrotation Yrotation Zrotation
		JOINT Spine
		{
			OFFSET 0.000000 6.876099 0.125700
			CHANNELS 3 Xrotation Yrotation Zrotation
			JOINT Spine1
			{
				OFFSET 0.000000 5.730043 0.104720
				CHANNELS 3 Xrotation Yrotation Zrotation
				JOINT Spine1_split
				{
					OFFSET 0.000000 5.730043 0.104720
					CHANNELS 3 Xrotation Yrotation Zrotation
					JOINT Spine2
					{
						OFFSET 0.000000 5.730043 0.104720
						CHANNELS 3 Xrotation Yrotation Zrotation
						JOINT Neck_virtual
						{
							OFFSET 0.000000 0.000000 0.000000
							CHANNELS 3 Xrotation Yrotation Zrotation
							JOINT Neck
							{
								OFFSET 0.000000 10.314075 0.188496
								CHANNELS 3 Xrotation Yrotation Zrotation
								JOINT Head
								{
									OFFSET 0.000000 7.643700 -2.377400
									CHANNELS 3 Xrotation Yrotation Zrotation
									JOINT HeadTop_End
									{
										OFFSET 0.000000 43.788605 -13.619600
										CHANNELS 3 Xrotation Yrotation Zrotation
										End Site
										{
											OFFSET 0 0 0
										}
									}
								}
							}
						}
						JOINT LeftShoulder_virtual
						{
							OFFSET 0.000000 0.000000 0.000000
							CHANNELS 3 Xrotation Yrotation Zrotation
							JOINT LeftShoulder
							{
								OFFSET 2.196100 4.412489 0.087492
								CHANNELS 3 Xrotation Yrotation Zrotation
								JOINT LeftShoulder_split
								{
									OFFSET 2.196100 4.412489 0.087492
									CHANNELS 3 Xrotation Yrotation Zrotation
									JOINT LeftArm
									{
										OFFSET 8.771219 -2.981674 -0.026999
										CHANNELS 3 Xrotation Yrotation Zrotation
										JOINT LeftForeArm
										{
											OFFSET 8.512804 0.000000 -0.000000
											CHANNELS 3 Xrotation Yrotation Zrotation
											JOINT LeftHand
											{
												OFFSET 18.484802 0.000000 -0.000000
												CHANNELS 3 Xrotation Yrotation Zrotation
												End Site
												{
													OFFSET 0 0 0
												}
											}
										}
									}
								}
							}
						}
						JOINT RightShoulder_virtual
						{
							OFFSET 0.000000 0.000000 0.000000
							CHANNELS 3 Xrotation Yrotation Zrotation
							JOINT RightShoulder
							{
								OFFSET -2.196100 4.412496 0.070690
								CHANNELS 3 Xrotation Yrotation Zrotation
								JOINT RightShoulder_split
								{
									OFFSET -2.196100 4.412496 0.070690
									CHANNELS 3 Xrotation Yrotation Zrotation
									JOINT RightArm
									{
										OFFSET -8.771282 -2.981682 -0.094208
										CHANNELS 3 Xrotation Yrotation Zrotation
										JOINT RightForeArm
										{
											OFFSET -8.494598 0.000000 0.000000
											CHANNELS 3 Xrotation Yrotation Zrotation
											JOINT RightHand
											{
												OFFSET -18.483803 0.000000 0.000001
												CHANNELS 3 Xrotation Yrotation Zrotation
												End Site
												{
													OFFSET 0 0 0
												}
											}
										}
									}
								}
							}
						}
					}
				}
			}
		}
	}
}
MOTION
Frames: 10
Frame Time: 0.03333333
4.961422 7.830830 -14.634542 0.000000 0.000000 0.000000 68.641017 7.154447 -3.645840 -4.635488 -6.472678 35.350494 36.072336 -4.854288 -17.100656 30.233242 52.660318 -33.636916 -5.470289 -7.200242 -3.845297 0.000000 0.000000 0.000000 70.883963 3.348162 -3.354281 -32.084424 -38.900663 -41.176328 38.488225 32.330509 -9.781449 39.739495 -45.381785 40.331297 16.318715 18.151352 4.288743 0.000000 0.000000 0.000000 75.267886 6.592612 -6.324818 15.528235 0.866406 -2.327739 -8.389241 -3.757417 -0.126174 -0.021906 0.430951 -0.017841 0.000000 0.000000 0.000000 -6.824484 -0.957701 1.220680 -8.057143 1.555213 12.584546 -25.358957 -35.646955 -11.582980 0.000000 0.000000 0.000000 -11.376659 -1.277579 -0.904125 -0.757390 -11.546852 4.921683 -0.055660 1.423778 -5.396700 29.917345 -32.439150 -54.563362 -6.928363 -36.540832 -6.463189 0.000000 0.000000 0.000000 -8.056426 -2.515169 0.124822 5.057651 2.873200 8.229286 -24.801236 1.820514 4.993655 21.426542 16.646759 46.741669 -19.369891 32.140005 28.023018 0.000000 0.000000 0.000000 
4.961299 7.831123 -14.636454 0.000000 0.000000 0.000000 68.638743 7.148185 -3.637110 -4.628795 -6.477781 35.348640 36.076332 -4.851918 -17.102987 30.248719 52.658020 -33.646728 -5.459975 -7.198001 -3.852126 0.000000 0.000000 0.000000 70.876511 3.347770 -3.352906 -32.072837 -38.905529 -41.173261 38.506493 32.326527 -9.785626 39.733779 -45.382632 40.335785 16.331911 18.156345 4.283318 0.000000 0.000000 0.000000 75.269641 6.602083 -6.327227 15.532974 0.870366 -2.330911 -8.387881 -3.751498 -0.126177 -0.021362 0.432520 -0.017615 0.000000 0.000000 0.000000 -6.821932 -0.955045 1.220572 -8.060053 1.553192 12.602040 -25.354248 -35.666804 -11.581393 0.000000 0.000000 0.000000 -11.375429 -1.272865 -0.906607 -0.752320 -11.563487 4.927447 -0.080756 1.425910 -5.375056 29.914927 -32.432364 -54.563823 -6.933888 -36.522818 -6.462119 0.000000 0.000000 0.000000 -8.055419 -2.510886 0.125180 5.055422 2.862408 8.225968 -24.809665 1.803736 4.986548 21.402155 16.598704 46.790023 -19.391534 32.128677 28.043444 0.000000 0.000000 0.000000 
4.961373 7.832420 -14.639036 0.000000 0.000000 0.000000 68.633450 7.146288 -3.631454 -4.624612 -6.477401 35.342838 36.082192 -4.840007 -17.098892 30.269271 52.656469 -33.654299 -5.451164 -7.193996 -3.863248 0.000000 0.000000 0.000000 70.868226 3.346111 -3.351776 -32.044874 -38.923284 -41.157914 38.512729 32.306320 -9.786012 39.709111 -45.405995 40.323620 16.349465 18.168003 4.273245 0.000000 0.000000 0.000000 75.267018 6.616376 -6.335074 15.543171 0.878533 -2.337324 -8.385962 -3.745011 -0.125096 -0.020932 0.435441 -0.018345 0.000000 0.000000 0.000000 -6.817279 -0.950884 1.221588 -8.059914 1.539169 12.652275 -25.367164 -35.703543 -11.595146 0.000000 0.000000 0.000000 -11.376701 -1.266975 -0.906578 -0.744880 -11.599641 4.944675 -0.090074 1.425506 -5.373165 29.897268 -32.435926 -54.556952 -6.931255 -36.476817 -6.456406 0.000000 0.000000 0.000000 -8.055932 -2.507247 0.127060 5.046659 2.824591 8.221827 -24.821360 1.789799 4.984074 21.368609 16.531411 46.832855 -19.429173 32.096541 28.090113 0.000000 0.000000 0.000000 
4.961009 7.834230 -14.642443 0.000000 0.000000 0.000000 68.627016 7.150298 -3.629250 -4.627327 -6.475076 35.334604 36.092195 -4.824951 -17.087890 30.291711 52.652931 -33.663205 -5.438603 -7.188789 -3.878347 0.000000 0.000000 0.000000 70.856150 3.343771 -3.347768 -32.012239 -38.946995 -41.140992 38.510215 32.277924 -9.783972 39.680448 -45.435088 40.311189 16.367712 18.184352 4.260439 0.000000 0.000000 0.000000 75.261656 6.631040 -6.344770 15.557709 0.889876 -2.346042 -8.382915 -3.738146 -0.123636 -0.021681 0.438677 -0.019115 0.000000 0.000000 0.000000 -6.811550 -0.945399 1.222858 -8.057987 1.516641 12.727757 -25.416456 -35.750699 -11.633230 0.000000 0.000000 0.000000 -11.378769 -1.260180 -0.904870 -0.735720 -11.652484 4.969763 -0.091340 1.420996 -5.394188 29.869394 -32.451001 -54.541277 -6.922402 -36.398621 -6.447944 0.000000 0.000000 0.000000 -8.056385 -2.503640 0.130255 5.033145 2.767297 8.212488 -24.832328 1.786905 5.000959 21.333510 16.458019 46.850412 -19.480186 32.058183 28.159519 0.000000 0.000000 0.000000 
4.960565 7.836132 -14.644728 0.000000 0.000000 0.000000 68.619598 7.160835 -3.630933 -4.635033 -6.474773 35.321452 36.106948 -4.808073 -17.071228 30.308742 52.649632 -33.663646 -5.426553 -7.183533 -3.894265 0.000000 0.000000 0.000000 70.842517 3.345743 -3.343433 -31.984246 -38.969112 -41.132625 38.512469 32.255678 -9.783700 39.662734 -45.449096 40.312289 16.382494 18.202376 4.250475 0.000000 0.000000 0.000000 75.254341 6.647842 -6.357424 15.573829 0.902619 -2.356067 -8.378492 -3.731014 -0.122018 -0.023332 0.439074 -0.020587 0.000000 0.000000 0.000000 -6.802774 -0.938862 1.224568 -8.055465 1.491650 12.818295 -25.515673 -35.792947 -11.701620 0.000000 0.000000 0.000000 -11.380243 -1.252369 -0.902208 -0.726618 -11.717454 4.999324 -0.087462 1.416883 -5.432739 29.829895 -32.478554 -54.519017 -6.910520 -36.287361 -6.439201 0.000000 0.000000 0.000000 -8.054639 -2.499532 0.133619 5.016928 2.701188 8.193112 -24.834619 1.782043 5.026511 21.302598 16.384481 46.832036 -19.534606 32.017413 28.240402 0.000000 0.000000 0.000000 
4.959673 7.838123 -14.647238 0.000000 0.000000 0.000000 68.612057 7.177637 -3.634820 -4.646331 -6.483724 35.303042 36.129556 -4.794078 -17.049925 30.328379 52.643628 -33.661826 -5.421805 -7.178561 -3.907002 0.000000 0.000000 0.000000 70.828666 3.354668 -3.339914 -31.967259 -38.985914 -41.139838 38.527424 32.241201 -9.784909 39.668728 -45.439128 40.331181 16.399537 18.218573 4.248493 0.000000 0.000000 0.000000 75.247525 6.666737 -6.371750 15.588237 0.914392 -2.366684 -8.371547 -3.723529 -0.120103 -0.023296 0.437643 -0.021051 0.000000 0.000000 0.000000 -6.789683 -0.931180 1.226568 -8.051842 1.471166 12.911913 -25.666116 -35.818393 -11.795498 0.000000 0.000000 0.000000 -11.379651 -1.244033 -0.899373 -0.719840 -11.790072 5.029229 -0.076836 1.439993 -5.488912 29.781066 -32.512144 -54.494459 -6.901680 -36.147550 -6.433508 0.000000 0.000000 0.000000 -8.050263 -2.494424 0.136495 5.000885 2.638659 8.161449 -24.844256 1.770366 5.062557 21.278534 16.314959 46.772917 -19.580670 31.972068 28.318821 0.000000 0.000000 0.000000 
4.959310 7.840214 -14.648882 0.000000 0.000000 0.000000 68.602994 7.199207 -3.638413 -4.659112 -6.505331 35.276752 36.160586 -4.782479 -17.024894 30.355751 52.637058 -33.659804 -5.423740 -7.174032 -3.912175 0.000000 0.000000 0.000000 70.812826 3.367818 -3.336433 -31.967720 -38.998242 -41.165834 38.554956 32.227445 -9.784424 39.703094 -45.408689 40.366660 16.432984 18.229078 4.258950 0.000000 0.000000 0.000000 75.241938 6.688123 -6.384568 15.595591 0.920634 -2.377623 -8.362480 -3.716137 -0.117827 -0.021914 0.436640 -0.021172 0.000000 0.000000 0.000000 -6.773107 -0.922249 1.229513 -8.040424 1.463332 12.996193 -25.850782 -35.830793 -11.899790 0.000000 0.000000 0.000000 -11.376556 -1.235934 -0.897715 -0.716538 -11.864185 5.055559 -0.066232 1.489669 -5.552829 29.728764 -32.536658 -54.477995 -6.904492 -35.993748 -6.434866 0.000000 0.000000 0.000000 -8.043262 -2.487490 0.138861 4.988427 2.591242 8.121077 -24.881587 1.739253 5.105390 21.253834 16.250699 46.679582 -19.610455 31.911207 28.383763 0.000000 0.000000 0.000000 
4.958796 7.842770 -14.647913 0.000000 0.000000 0.000000 68.594278 7.228884 -3.643246 -4.668819 -6.536015 35.240347 36.192141 -4.761339 -16.999900 30.375443 52.642266 -33.638456 -5.413873 -7.170754 -3.911649 0.000000 0.000000 0.000000 70.797581 3.386657 -3.334624 -31.983952 -39.008638 -41.209024 38.586986 32.210489 -9.780217 39.753743 -45.368200 40.410869 16.491142 18.231368 4.281208 0.000000 0.000000 0.000000 75.235087 6.714143 -6.394433 15.590561 0.918175 -2.389677 -8.352416 -3.710542 -0.115350 -0.020810 0.433692 -0.021094 0.000000 0.000000 0.000000 -6.755012 -0.913072 1.233319 -8.015872 1.470895 13.059335 -26.047140 -35.839246 -11.992822 0.000000 0.000000 0.000000 -11.373278 -1.228788 -0.896959 -0.717484 -11.936365 5.078912 -0.037327 1.555636 -5.602663 29.673798 -32.549027 -54.479416 -6.928703 -35.854655 -6.447861 0.000000 0.000000 0.000000 -8.035878 -2.480543 0.140559 4.980312 2.569036 8.080017 -24.924462 1.690346 5.138435 21.221382 16.192379 46.568725 -19.619698 31.829207 28.430012 0.000000 0.000000 0.000000 
4.957544 7.845339 -14.644796 0.000000 0.000000 0.000000 68.586984 7.264398 -3.647760 -4.675897 -6.572604 35.199247 36.216344 -4.732028 -16.975756 30.385814 52.658102 -33.604923 -5.378795 -7.169424 -3.905449 0.000000 0.000000 0.000000 70.787643 3.411776 -3.333478 -32.005471 -39.016769 -41.259421 38.609970 32.185347 -9.770525 39.798737 -45.331074 40.453213 16.566948 18.223703 4.309113 0.000000 0.000000 0.000000 75.228701 6.742194 -6.396529 15.571214 0.902203 -2.402604 -8.343803 -3.709865 -0.113591 -0.018702 0.429993 -0.019445 0.000000 0.000000 0.000000 -6.740076 -0.905936 1.237173 -7.972215 1.496438 13.093510 -26.229946 -35.854542 -12.052160 0.000000 0.000000 0.000000 -11.371707 -1.225079 -0.898365 -0.722633 -12.003152 5.094497 -0.001018 1.591138 -5.619095 29.617432 -32.543632 -54.504992 -6.979542 -35.740526 -6.471190 0.000000 0.000000 0.000000 -8.030877 -2.475727 0.141693 4.977138 2.577286 8.044682 -24.943214 1.633130 5.163681 21.175169 16.146461 46.451823 -19.622196 31.735460 28.465945 0.000000 0.000000 0.000000 
4.955949 7.847641 -14.640852 0.000000 0.000000 0.000000 68.581526 7.299760 -3.649831 -4.678107 -6.614263 35.157644 36.226422 -4.700672 -16.953592 30.390773 52.674433 -33.571363 -5.324228 -7.170377 -3.891290 0.000000 0.000000 0.000000 70.784467 3.441184 -3.333147 -32.024691 -39.022732 -41.307321 38.619782 32.152494 -9.757385 39.831597 -45.300881 40.495297 16.650108 18.206559 4.334441 0.000000 0.000000 0.000000 75.224889 6.771091 -6.391077 15.538612 0.871091 -2.415153 -8.339945 -3.716758 -0.113837 -0.017977 0.425858 -0.017734 0.000000 0.000000 0.000000 -6.732339 -0.904001 1.240288 -7.911130 1.539586 13.094203 -26.390922 -35.879308 -12.071670 0.000000 0.000000 0.000000 -11.374018 -1.225841 -0.903200 -0.730061 -12.064210 5.099483 0.033598 1.580310 -5.588813 29.553774 -32.518346 -54.559257 -7.057993 -35.642058 -6.501753 0.000000 0.000000 0.000000 -8.030053 -2.476090 0.141787 4.977859 2.616914 8.019905 -24.940685 1.567257 5.176479 21.117451 16.115910 46.336881 -19.631079 31.641282 28.500909 0.000000 0.000000 0.000000 
